<svg version="1.1" id="Layer_1" xmlns="http://www.w3.org/2000/svg" xmlns:xlink="http://www.w3.org/1999/xlink" x="0px" y="0px"
	 width="100%" viewBox="0 0 1804 520" enable-background="new 0 0 1804 520" xml:space="preserve">
<path fill="#FFFFFF" opacity="0.1" stroke="none" 
	d="
M1286.000000,521.000000 
	C857.333313,521.000000 429.166656,521.000000 1.000000,521.000000 
	C1.000000,347.666656 1.000000,174.333328 1.000000,1.000000 
	C602.333313,1.000000 1203.666626,1.000000 1805.000000,1.000000 
	C1805.000000,174.333328 1805.000000,347.666656 1805.000000,521.000000 
	C1632.166626,521.000000 1459.333374,521.000000 1286.000000,521.000000 
M1404.191406,258.500000 
	C1404.193237,274.494293 1404.114136,290.489166 1404.227173,306.482666 
	C1404.295044,316.101044 1408.448975,320.100800 1417.939697,320.104309 
	C1442.597900,320.113434 1467.256104,320.109924 1491.914307,320.105804 
	C1502.238892,320.104095 1506.043457,316.363861 1506.060181,306.028687 
	C1506.095459,284.202911 1506.016113,262.376831 1506.099243,240.551300 
	C1506.138184,230.335297 1504.237549,231.755783 1515.406372,231.231049 
	C1520.984985,230.968948 1523.625854,233.029633 1525.805664,238.019653 
	C1535.925781,261.188141 1546.480713,284.166260 1556.791870,307.251923 
	C1560.198242,314.878632 1565.466919,319.973755 1574.175293,320.012939 
	C1602.331421,320.139679 1630.488892,320.140350 1658.645264,320.042999 
	C1664.751099,320.021881 1668.638184,314.429932 1666.846313,308.573059 
	C1666.124023,306.211792 1664.904419,303.976929 1663.723389,301.785736 
	C1648.645020,273.813049 1633.592773,245.825729 1618.348511,217.943451 
	C1616.543945,214.642990 1617.120483,213.047501 1620.076660,211.133224 
	C1629.671997,204.919647 1637.874146,197.146729 1644.515869,187.833679 
	C1657.282593,169.931976 1661.171143,149.755905 1659.766357,128.166595 
	C1657.633301,95.386871 1643.254883,70.060684 1614.594360,53.395126 
	C1593.464600,41.108551 1570.195923,36.317188 1546.169678,35.984375 
	C1504.025269,35.400593 1461.868408,35.720814 1419.716675,35.678802 
	C1407.630737,35.666759 1404.193237,39.093826 1404.192749,51.070908 
	C1404.190186,119.880608 1404.191528,188.690308 1404.191406,258.500000 
M644.500000,35.673729 
	C626.000061,35.673996 607.500122,35.659428 589.000183,35.680103 
	C577.931946,35.692471 574.173279,39.396584 574.172485,50.282288 
	C574.166077,134.948624 574.162048,219.614975 574.202332,304.281281 
	C574.203613,306.922882 574.248108,309.709900 575.053101,312.174011 
	C576.529541,316.692902 579.337646,320.081451 584.719604,320.081085 
	C611.052673,320.079285 637.386841,320.194122 663.716858,319.910767 
	C666.262024,319.883362 669.726379,318.012482 671.081543,315.911865 
	C672.932373,313.042816 673.942200,309.138611 673.972473,305.666534 
	C674.191895,280.502106 674.066528,255.334717 674.079590,230.168289 
	C674.080383,228.553238 674.325623,226.938324 674.457153,225.323349 
	C676.403992,226.714874 677.269104,228.105057 678.066772,229.532944 
	C692.923584,256.127319 707.773560,282.725494 722.621887,309.324615 
	C726.055542,315.475464 730.653503,320.027832 738.223145,320.040527 
	C769.722778,320.093353 801.223328,320.169952 832.720886,319.913818 
	C835.248962,319.893311 838.424744,317.971222 840.128845,315.947174 
	C843.231812,312.261475 841.643555,308.203583 839.376038,304.391113 
	C814.442993,262.469910 789.647949,220.466034 764.530701,178.655701 
	C761.485657,173.586884 761.364258,170.026733 764.483337,164.882111 
	C787.267212,127.301895 809.700562,89.508926 832.205688,51.759964 
	C837.829529,42.326908 834.114197,35.720219 823.118469,35.696682 
	C794.452087,35.635323 765.784668,35.802151 737.119385,35.610973 
	C728.499695,35.553486 722.728699,39.002266 718.610046,46.563896 
	C706.986877,67.903793 695.041382,89.068207 683.208252,110.293602 
	C680.665161,114.855232 678.060608,119.382614 675.484436,123.925781 
	C674.234558,121.910873 674.087646,120.177773 674.086853,118.444595 
	C674.076721,95.111420 674.139526,71.778061 674.064392,48.445133 
	C674.036987,39.922916 669.938171,35.860508 661.499451,35.697174 
	C656.168091,35.593979 650.833191,35.674965 644.500000,35.673729 
M1274.031738,118.500000 
	C1274.013672,149.996597 1274.170044,181.494629 1273.912476,212.989273 
	C1273.757812,231.908569 1264.155640,241.429153 1245.314453,242.302002 
	C1230.003174,243.011307 1219.398682,236.443970 1215.690796,223.228226 
	C1214.410278,218.664200 1214.234131,213.679993 1214.225220,208.886475 
	C1214.127808,156.225204 1214.174561,103.563690 1214.153320,50.902260 
	C1214.148682,39.274822 1210.092773,35.240791 1198.533936,35.234016 
	C1175.369507,35.220444 1152.205200,35.226135 1129.040771,35.231163 
	C1115.989746,35.233994 1112.307495,38.852680 1112.304565,51.721016 
	C1112.295898,88.717346 1112.228638,125.713875 1112.330444,162.709930 
	C1112.385010,182.534332 1112.506836,202.364182 1113.037720,222.179794 
	C1113.419922,236.453293 1116.819946,250.166901 1122.731812,263.202484 
	C1134.917847,290.072876 1156.957520,305.424408 1183.786255,314.943604 
	C1206.409180,322.970459 1229.905029,324.786072 1253.710327,323.921539 
	C1277.242554,323.066956 1299.995605,318.899811 1321.185059,308.080017 
	C1340.602051,298.165253 1355.677246,284.001282 1365.093384,264.027649 
	C1373.542847,246.104523 1375.771240,227.080215 1375.793091,207.630859 
	C1375.852173,155.136124 1375.822266,102.641289 1375.808716,50.146500 
	C1375.805908,39.242371 1371.716797,35.243973 1360.596436,35.235344 
	C1336.932129,35.216984 1313.267700,35.212269 1289.603394,35.238438 
	C1278.130615,35.251125 1274.048218,39.398239 1274.038086,51.006599 
	C1274.018799,73.171051 1274.032104,95.335533 1274.031738,118.500000 
M453.316040,35.762943 
	C424.161713,35.748634 395.007202,35.665073 365.853180,35.753277 
	C353.781464,35.789795 349.732880,39.074318 345.790253,50.385986 
	C330.961548,92.930519 316.035583,135.441162 301.141296,177.962860 
	C286.244843,220.490692 271.315613,263.007080 256.464111,305.550598 
	C253.182266,314.951782 256.861755,320.069733 266.793762,320.087646 
	C290.784058,320.130920 314.774536,320.128693 338.764832,320.085541 
	C348.442322,320.068146 352.371368,317.386993 355.738068,308.468506 
	C358.320648,301.627197 360.780212,294.736053 363.120453,287.808289 
	C364.204132,284.600281 365.729950,283.097809 369.526123,283.126892 
	C395.514191,283.325897 421.504700,283.280945 447.493835,283.169617 
	C451.031494,283.154480 452.948090,284.242676 454.044556,287.749481 
	C456.176392,294.567596 458.731598,301.254150 461.143616,307.983673 
	C464.209290,316.536835 469.002960,320.063721 477.911194,320.081177 
	C502.234680,320.128876 526.558411,320.133484 550.881897,320.089600 
	C560.037354,320.073090 563.894470,314.572174 560.863770,305.901550 
	C544.903198,260.239868 528.892822,214.595627 512.931519,168.934174 
	C498.832520,128.600220 484.762146,88.256264 470.711426,47.905472 
	C467.989380,40.088181 463.206268,36.501026 453.316040,35.762943 
M126.670433,149.090866 
	C126.670433,139.248550 126.670433,129.406235 126.670433,119.149605 
	C128.532272,119.149605 130.501511,119.149620 132.470734,119.149612 
	C168.303345,119.149544 204.135956,119.167809 239.968536,119.136688 
	C249.125992,119.128731 252.974289,115.241432 252.991425,106.061523 
	C253.025940,87.561966 253.002609,69.062302 253.001526,50.562675 
	C253.000854,39.075794 249.359558,35.387215 237.730072,35.383114 
	C171.898071,35.359894 106.066078,35.359428 40.234093,35.385036 
	C30.110348,35.388973 26.147346,39.488010 26.146940,49.700771 
	C26.143545,135.032364 26.142529,220.363968 26.148100,305.695557 
	C26.148811,316.588409 29.638866,320.128784 40.479542,320.141174 
	C64.145699,320.168182 87.811920,320.164368 111.478081,320.142731 
	C121.996834,320.133118 125.845718,316.217957 125.851379,305.584381 
	C125.863274,283.251495 125.855003,260.918610 125.855019,238.585724 
	C125.855019,236.815933 125.855011,235.046143 125.855011,232.854996 
	C128.467117,232.854996 130.432526,232.854996 132.397934,232.854996 
	C165.063934,232.854965 197.729950,232.870514 230.395935,232.845978 
	C240.952759,232.838043 244.983566,228.833542 244.995926,218.425018 
	C245.017105,200.592056 245.003662,182.759079 245.001205,164.926102 
	C244.999557,152.978745 241.445419,149.380676 229.626190,149.372803 
	C195.627319,149.350174 161.628448,149.332336 126.670433,149.090866 
M1076.491211,123.073761 
	C1078.823853,123.073669 1081.156372,123.076920 1083.489014,123.072891 
	C1094.545654,123.053810 1098.041260,119.551071 1098.053833,108.366592 
	C1098.075317,89.205849 1098.060791,70.045059 1098.061035,50.884289 
	C1098.061157,38.885410 1094.805054,35.675911 1082.580933,35.674728 
	C1035.928589,35.670212 989.276306,35.672779 942.623962,35.672871 
	C912.299988,35.672932 881.975891,35.648109 851.651978,35.687965 
	C841.803772,35.700909 837.961365,39.533203 837.952881,49.162560 
	C837.935242,69.322998 837.915588,89.483559 837.965942,109.643898 
	C837.989685,119.153107 841.883850,123.047852 851.281067,123.063011 
	C870.775024,123.094460 890.269043,123.074677 909.763062,123.072906 
	C916.321533,123.072304 916.332397,123.068085 916.332703,129.525421 
	C916.335815,187.340958 916.327942,245.156509 916.356750,302.972046 
	C916.358093,305.625946 916.496216,308.306793 916.886536,310.928070 
	C917.752563,316.745300 921.520325,320.054810 927.400024,320.064880 
	C954.558105,320.111328 981.716492,320.110229 1008.874573,320.058685 
	C1014.425842,320.048157 1018.215393,316.712006 1019.090027,311.158142 
	C1019.502136,308.541473 1019.646912,305.858246 1019.648315,303.205017 
	C1019.678711,245.222855 1019.741516,187.240479 1019.552429,129.258942 
	C1019.535583,124.089371 1021.005493,122.852806 1026.011963,122.951431 
	C1042.500366,123.276237 1058.999390,123.073784 1076.491211,123.073761 
M1685.907837,315.352386 
	C1688.217773,318.891693 1691.629517,320.154572 1695.691650,320.152893 
	C1718.502808,320.143463 1741.314209,320.206665 1764.125000,320.117615 
	C1771.918701,320.087189 1776.435791,316.051758 1776.521484,308.210358 
	C1776.770874,285.402191 1776.786377,262.587372 1776.516113,239.779648 
	C1776.418091,231.502380 1771.730103,227.421860 1763.429321,227.394165 
	C1741.284424,227.320312 1719.138672,227.289627 1696.994263,227.408737 
	C1688.066772,227.456741 1683.883789,231.786850 1683.864624,240.606567 
	C1683.816650,262.751617 1683.797607,284.897064 1683.918213,307.041534 
	C1683.932251,309.606598 1684.899414,312.166473 1685.907837,315.352386 
M1307.830566,384.285400 
	C1297.932007,404.257874 1288.033325,424.230347 1278.134644,444.202820 
	C1277.489380,444.049774 1276.844238,443.896729 1276.198975,443.743683 
	C1276.198975,440.313232 1276.221802,436.882629 1276.195068,433.452393 
	C1276.066162,416.955658 1275.985107,400.457947 1275.685669,383.964203 
	C1275.657593,382.420288 1274.352295,379.681213 1273.415405,379.580200 
	C1269.050049,379.109711 1264.605713,379.371735 1259.782349,379.371735 
	C1260.763672,408.704224 1261.718140,437.233734 1262.680908,466.008057 
	C1268.158081,466.008057 1272.829956,465.754456 1277.459229,466.088654 
	C1281.133423,466.353882 1283.020752,465.149292 1284.625000,461.726501 
	C1293.169922,443.495728 1302.009521,425.402924 1310.767578,407.272278 
	C1311.475220,405.807617 1312.336914,404.417328 1313.126953,402.992462 
	C1313.544678,403.133179 1313.962280,403.273895 1314.380005,403.414612 
	C1316.012695,424.220154 1317.645508,445.025665 1319.292236,466.007965 
	C1324.923706,466.007965 1329.928833,465.775543 1334.899292,466.090302 
	C1338.172241,466.297516 1339.541382,464.882599 1340.754883,462.120026 
	C1348.917725,443.536377 1357.234497,425.020416 1365.489868,406.477325 
	C1369.388184,397.720917 1373.260864,388.953186 1377.527588,379.328003 
	C1373.263306,379.328003 1369.795654,379.652893 1366.416626,379.244537 
	C1362.329224,378.750580 1360.600830,380.560455 1359.107422,384.116577 
	C1351.184692,402.983002 1343.017334,421.746735 1334.910156,440.535400 
	C1334.366699,441.794769 1333.619629,442.966278 1332.265259,445.483307 
	C1331.692505,442.578949 1331.278931,441.194366 1331.162842,439.785248 
	C1329.782593,423.025269 1328.410889,406.264374 1327.112671,389.497864 
	C1326.324951,379.322815 1326.382446,379.430267 1315.832886,379.266083 
	C1312.229370,379.210022 1309.190674,379.440826 1307.830566,384.285400 
M1735.092163,458.673889 
	C1743.151733,420.901794 1751.211182,383.129700 1759.346436,345.002808 
	C1753.125000,345.002808 1747.839600,345.002808 1742.140503,345.002808 
	C1738.788208,360.227448 1735.451904,375.379028 1732.115601,390.530609 
	C1731.600586,390.534210 1731.085449,390.537781 1730.570435,390.541351 
	C1727.017578,383.809265 1721.436035,379.657104 1714.169922,378.542450 
	C1699.838013,376.343903 1686.845947,379.638397 1676.733398,390.418457 
	C1664.143066,403.840240 1660.375610,420.532654 1660.826660,438.368256 
	C1661.124390,450.146484 1665.432251,460.121948 1676.846558,465.004089 
	C1688.762939,470.100983 1700.319580,468.397583 1710.745117,460.554749 
	C1713.190430,458.715210 1715.270020,456.389557 1718.532837,453.338531 
	C1717.810913,458.368500 1717.291016,461.991241 1716.762939,465.670715 
	C1722.771240,465.670715 1728.196167,465.670715 1733.597412,465.670715 
	C1734.106445,463.403473 1734.543457,461.457550 1735.092163,458.673889 
M1558.115234,430.617828 
	C1559.075073,421.741730 1560.974487,412.844727 1560.777588,403.994354 
	C1560.470215,390.182617 1550.888306,379.861328 1538.024170,378.207581 
	C1526.356934,376.707703 1515.870361,379.484375 1507.417969,388.193634 
	C1506.375122,389.268250 1505.210083,390.224396 1504.101562,391.235443 
	C1503.807007,391.015991 1503.512329,390.796570 1503.217773,390.577148 
	C1506.403564,375.524811 1509.589478,360.472473 1512.902222,344.820221 
	C1508.190674,344.820221 1503.886108,345.003845 1499.606079,344.758942 
	C1496.490112,344.580627 1495.410645,345.642609 1494.762939,348.767212 
	C1488.959106,376.760834 1482.923828,404.706512 1476.965942,432.668304 
	C1474.629517,443.633667 1472.317017,454.604126 1469.902588,466.001801 
	C1475.194702,466.001801 1479.857910,466.221893 1484.474243,465.853333 
	C1485.689575,465.756317 1487.285522,464.037018 1487.784302,462.714661 
	C1488.762939,460.121033 1489.093262,457.282898 1489.691895,454.545959 
	C1490.151001,454.499054 1490.610107,454.452179 1491.069092,454.405273 
	C1494.605835,460.723785 1499.651489,465.135834 1506.653442,466.687683 
	C1515.697021,468.692078 1524.568848,467.637573 1532.981201,463.893433 
	C1547.109009,457.605499 1553.813477,445.453918 1558.115234,430.617828 
M1448.037354,444.627563 
	C1446.391968,443.497040 1444.701660,442.425812 1443.112183,441.221466 
	C1440.963745,439.593628 1439.376465,439.757507 1437.767456,442.113739 
	C1432.737549,449.479553 1425.287476,452.139160 1416.747437,452.612915 
	C1404.031494,453.318268 1395.381470,443.322845 1398.371948,431.109680 
	C1398.964722,431.064606 1399.613037,430.940948 1400.251221,430.980896 
	C1402.077026,431.095276 1403.895874,431.347565 1405.722534,431.419281 
	C1420.520630,432.000458 1435.177734,431.515411 1447.660034,422.109985 
	C1455.807495,415.970764 1459.731079,407.462311 1458.294922,397.243683 
	C1456.867676,387.087677 1449.921387,381.645508 1440.464355,379.378174 
	C1425.140015,375.704102 1410.789185,378.220001 1398.784302,388.636261 
	C1383.331543,402.044281 1378.245483,419.791229 1380.877808,439.539093 
	C1383.127686,456.418091 1393.173462,465.964722 1409.823608,467.405182 
	C1426.667847,468.862457 1442.637329,463.828247 1451.570679,447.434174 
	C1450.635742,446.666840 1449.648804,445.856812 1448.037354,444.627563 
M1613.145386,462.815277 
	C1613.869019,463.876617 1614.540527,465.809692 1615.324951,465.856567 
	C1620.106201,466.142273 1624.913208,465.999268 1629.844727,465.999268 
	C1636.004272,437.053925 1642.076416,408.519379 1648.288330,379.328033 
	C1643.663330,379.328033 1639.692505,379.571716 1635.766479,379.257690 
	C1632.041382,378.959717 1630.658813,380.285187 1629.893677,383.992950 
	C1624.523315,410.013153 1618.883667,435.977783 1613.145386,462.815277 
M1589.067871,462.356934 
	C1589.662231,461.172882 1590.480957,460.048370 1590.813721,458.794891 
	C1592.631104,451.949188 1589.139282,446.247131 1582.407227,444.878632 
	C1575.124756,443.398224 1568.832886,447.093567 1567.941772,453.374420 
	C1566.899292,460.722229 1571.204346,466.576843 1578.617432,466.538452 
	C1581.946289,466.521240 1585.263184,464.223450 1589.067871,462.356934 
M1641.479858,365.270172 
	C1648.991211,366.744110 1654.785645,363.372253 1655.846069,356.910217 
	C1656.775146,351.248383 1653.655151,346.361389 1648.085938,344.755280 
	C1642.483765,343.139648 1636.353027,345.859863 1634.399658,350.828125 
	C1632.149170,356.551636 1634.427002,361.702850 1641.479858,365.270172 
z"/>
<path fill="#c0392b" opacity="1.000000" stroke="none" 
	d="
M1404.191406,258.000000 
	C1404.191528,188.690308 1404.190186,119.880608 1404.192749,51.070908 
	C1404.193237,39.093826 1407.630737,35.666759 1419.716675,35.678802 
	C1461.868408,35.720814 1504.025269,35.400593 1546.169678,35.984375 
	C1570.195923,36.317188 1593.464600,41.108551 1614.594360,53.395126 
	C1643.254883,70.060684 1657.633301,95.386871 1659.766357,128.166595 
	C1661.171143,149.755905 1657.282593,169.931976 1644.515869,187.833679 
	C1637.874146,197.146729 1629.671997,204.919647 1620.076660,211.133224 
	C1617.120483,213.047501 1616.543945,214.642990 1618.348511,217.943451 
	C1633.592773,245.825729 1648.645020,273.813049 1663.723389,301.785736 
	C1664.904419,303.976929 1666.124023,306.211792 1666.846313,308.573059 
	C1668.638184,314.429932 1664.751099,320.021881 1658.645264,320.042999 
	C1630.488892,320.140350 1602.331421,320.139679 1574.175293,320.012939 
	C1565.466919,319.973755 1560.198242,314.878632 1556.791870,307.251923 
	C1546.480713,284.166260 1535.925781,261.188141 1525.805664,238.019653 
	C1523.625854,233.029633 1520.984985,230.968948 1515.406372,231.231049 
	C1504.237549,231.755783 1506.138184,230.335297 1506.099243,240.551300 
	C1506.016113,262.376831 1506.095459,284.202911 1506.060181,306.028687 
	C1506.043457,316.363861 1502.238892,320.104095 1491.914307,320.105804 
	C1467.256104,320.109924 1442.597900,320.113434 1417.939697,320.104309 
	C1408.448975,320.100800 1404.295044,316.101044 1404.227173,306.482666 
	C1404.114136,290.489166 1404.193237,274.494293 1404.191406,258.000000 
M1529.454956,111.045029 
	C1521.722046,111.045029 1513.989014,111.045029 1506.051270,111.045029 
	C1506.051270,124.875168 1506.108398,137.841614 1506.006958,150.806839 
	C1505.984619,153.675323 1507.438232,154.036850 1509.746338,154.021347 
	C1519.394287,153.956528 1529.046509,154.138092 1538.689819,153.916504 
	C1543.818115,153.798676 1547.659302,151.246155 1550.452148,146.731354 
	C1554.297363,140.515594 1554.765625,133.854370 1553.625732,127.008102 
	C1552.190186,118.385269 1546.172119,112.282303 1538.407837,111.261971 
	C1535.785889,110.917412 1533.094482,111.102196 1529.454956,111.045029 
z"/>
<path fill="#c0392b" opacity="1.000000" stroke="none" 
	d="
M644.999939,35.673531 
	C650.833191,35.674965 656.168091,35.593979 661.499451,35.697174 
	C669.938171,35.860508 674.036987,39.922916 674.064392,48.445133 
	C674.139526,71.778061 674.076721,95.111420 674.086853,118.444595 
	C674.087646,120.177773 674.234558,121.910873 675.484436,123.925781 
	C678.060608,119.382614 680.665161,114.855232 683.208252,110.293602 
	C695.041382,89.068207 706.986877,67.903793 718.610046,46.563896 
	C722.728699,39.002266 728.499695,35.553486 737.119385,35.610973 
	C765.784668,35.802151 794.452087,35.635323 823.118469,35.696682 
	C834.114197,35.720219 837.829529,42.326908 832.205688,51.759964 
	C809.700562,89.508926 787.267212,127.301895 764.483337,164.882111 
	C761.364258,170.026733 761.485657,173.586884 764.530701,178.655701 
	C789.647949,220.466034 814.442993,262.469910 839.376038,304.391113 
	C841.643555,308.203583 843.231812,312.261475 840.128845,315.947174 
	C838.424744,317.971222 835.248962,319.893311 832.720886,319.913818 
	C801.223328,320.169952 769.722778,320.093353 738.223145,320.040527 
	C730.653503,320.027832 726.055542,315.475464 722.621887,309.324615 
	C707.773560,282.725494 692.923584,256.127319 678.066772,229.532944 
	C677.269104,228.105057 676.403992,226.714874 674.457153,225.323349 
	C674.325623,226.938324 674.080383,228.553238 674.079590,230.168289 
	C674.066528,255.334717 674.191895,280.502106 673.972473,305.666534 
	C673.942200,309.138611 672.932373,313.042816 671.081543,315.911865 
	C669.726379,318.012482 666.262024,319.883362 663.716858,319.910767 
	C637.386841,320.194122 611.052673,320.079285 584.719604,320.081085 
	C579.337646,320.081451 576.529541,316.692902 575.053101,312.174011 
	C574.248108,309.709900 574.203613,306.922882 574.202332,304.281281 
	C574.162048,219.614975 574.166077,134.948624 574.172485,50.282288 
	C574.173279,39.396584 577.931946,35.692471 589.000183,35.680103 
	C607.500122,35.659428 626.000061,35.673996 644.999939,35.673531 
z"/>
<path fill="#c0392b" opacity="1.000000" stroke="none" 
	d="
M1274.031738,118.000000 
	C1274.032104,95.335533 1274.018799,73.171051 1274.038086,51.006599 
	C1274.048218,39.398239 1278.130615,35.251125 1289.603394,35.238438 
	C1313.267700,35.212269 1336.932129,35.216984 1360.596436,35.235344 
	C1371.716797,35.243973 1375.805908,39.242371 1375.808716,50.146500 
	C1375.822266,102.641289 1375.852173,155.136124 1375.793091,207.630859 
	C1375.771240,227.080215 1373.542847,246.104523 1365.093384,264.027649 
	C1355.677246,284.001282 1340.602051,298.165253 1321.185059,308.080017 
	C1299.995605,318.899811 1277.242554,323.066956 1253.710327,323.921539 
	C1229.905029,324.786072 1206.409180,322.970459 1183.786255,314.943604 
	C1156.957520,305.424408 1134.917847,290.072876 1122.731812,263.202484 
	C1116.819946,250.166901 1113.419922,236.453293 1113.037720,222.179794 
	C1112.506836,202.364182 1112.385010,182.534332 1112.330444,162.709930 
	C1112.228638,125.713875 1112.295898,88.717346 1112.304565,51.721016 
	C1112.307495,38.852680 1115.989746,35.233994 1129.040771,35.231163 
	C1152.205200,35.226135 1175.369507,35.220444 1198.533936,35.234016 
	C1210.092773,35.240791 1214.148682,39.274822 1214.153320,50.902260 
	C1214.174561,103.563690 1214.127808,156.225204 1214.225220,208.886475 
	C1214.234131,213.679993 1214.410278,218.664200 1215.690796,223.228226 
	C1219.398682,236.443970 1230.003174,243.011307 1245.314453,242.302002 
	C1264.155640,241.429153 1273.757812,231.908569 1273.912476,212.989273 
	C1274.170044,181.494629 1274.013672,149.996597 1274.031738,118.000000 
z"/>
<path fill="#c0392b" opacity="1.000000" stroke="none" 
	d="
M453.784058,35.796478 
	C463.206268,36.501026 467.989380,40.088181 470.711426,47.905472 
	C484.762146,88.256264 498.832520,128.600220 512.931519,168.934174 
	C528.892822,214.595627 544.903198,260.239868 560.863770,305.901550 
	C563.894470,314.572174 560.037354,320.073090 550.881897,320.089600 
	C526.558411,320.133484 502.234680,320.128876 477.911194,320.081177 
	C469.002960,320.063721 464.209290,316.536835 461.143616,307.983673 
	C458.731598,301.254150 456.176392,294.567596 454.044556,287.749481 
	C452.948090,284.242676 451.031494,283.154480 447.493835,283.169617 
	C421.504700,283.280945 395.514191,283.325897 369.526123,283.126892 
	C365.729950,283.097809 364.204132,284.600281 363.120453,287.808289 
	C360.780212,294.736053 358.320648,301.627197 355.738068,308.468506 
	C352.371368,317.386993 348.442322,320.068146 338.764832,320.085541 
	C314.774536,320.128693 290.784058,320.130920 266.793762,320.087646 
	C256.861755,320.069733 253.182266,314.951782 256.464111,305.550598 
	C271.315613,263.007080 286.244843,220.490692 301.141296,177.962860 
	C316.035583,135.441162 330.961548,92.930519 345.790253,50.385986 
	C349.732880,39.074318 353.781464,35.789795 365.853180,35.753277 
	C395.007202,35.665073 424.161713,35.748634 453.784058,35.796478 
M396.271942,168.729050 
	C392.826660,180.263947 389.381409,191.798828 385.815063,203.738998 
	C401.311493,203.738998 415.971680,203.738998 431.477905,203.738998 
	C423.956390,179.129745 416.637299,155.182739 409.318207,131.235718 
	C408.747467,131.200317 408.176727,131.164917 407.605988,131.129517 
	C403.922791,143.411301 400.239594,155.693069 396.271942,168.729050 
z"/>
<path fill="#c0392b" opacity="1.000000" stroke="none" 
	d="
M127.150009,149.201752 
	C161.628448,149.332336 195.627319,149.350174 229.626190,149.372803 
	C241.445419,149.380676 244.999557,152.978745 245.001205,164.926102 
	C245.003662,182.759079 245.017105,200.592056 244.995926,218.425018 
	C244.983566,228.833542 240.952759,232.838043 230.395935,232.845978 
	C197.729950,232.870514 165.063934,232.854965 132.397934,232.854996 
	C130.432526,232.854996 128.467117,232.854996 125.855011,232.854996 
	C125.855011,235.046143 125.855019,236.815933 125.855019,238.585724 
	C125.855003,260.918610 125.863274,283.251495 125.851379,305.584381 
	C125.845718,316.217957 121.996834,320.133118 111.478081,320.142731 
	C87.811920,320.164368 64.145699,320.168182 40.479542,320.141174 
	C29.638866,320.128784 26.148811,316.588409 26.148100,305.695557 
	C26.142529,220.363968 26.143545,135.032364 26.146940,49.700771 
	C26.147346,39.488010 30.110348,35.388973 40.234093,35.385036 
	C106.066078,35.359428 171.898071,35.359894 237.730072,35.383114 
	C249.359558,35.387215 253.000854,39.075794 253.001526,50.562675 
	C253.002609,69.062302 253.025940,87.561966 252.991425,106.061523 
	C252.974289,115.241432 249.125992,119.128731 239.968536,119.136688 
	C204.135956,119.167809 168.303345,119.149544 132.470734,119.149612 
	C130.501511,119.149620 128.532272,119.149605 126.670433,119.149605 
	C126.670433,129.406235 126.670433,139.248550 127.150009,149.201752 
z"/>
<path fill="#c0392b" opacity="1.000000" stroke="none" 
	d="
M1075.992676,123.073792 
	C1058.999390,123.073784 1042.500366,123.276237 1026.011963,122.951431 
	C1021.005493,122.852806 1019.535583,124.089371 1019.552429,129.258942 
	C1019.741516,187.240479 1019.678711,245.222855 1019.648315,303.205017 
	C1019.646912,305.858246 1019.502136,308.541473 1019.090027,311.158142 
	C1018.215393,316.712006 1014.425842,320.048157 1008.874573,320.058685 
	C981.716492,320.110229 954.558105,320.111328 927.400024,320.064880 
	C921.520325,320.054810 917.752563,316.745300 916.886536,310.928070 
	C916.496216,308.306793 916.358093,305.625946 916.356750,302.972046 
	C916.327942,245.156509 916.335815,187.340958 916.332703,129.525421 
	C916.332397,123.068085 916.321533,123.072304 909.763062,123.072906 
	C890.269043,123.074677 870.775024,123.094460 851.281067,123.063011 
	C841.883850,123.047852 837.989685,119.153107 837.965942,109.643898 
	C837.915588,89.483559 837.935242,69.322998 837.952881,49.162560 
	C837.961365,39.533203 841.803772,35.700909 851.651978,35.687965 
	C881.975891,35.648109 912.299988,35.672932 942.623962,35.672871 
	C989.276306,35.672779 1035.928589,35.670212 1082.580933,35.674728 
	C1094.805054,35.675911 1098.061157,38.885410 1098.061035,50.884289 
	C1098.060791,70.045059 1098.075317,89.205849 1098.053833,108.366592 
	C1098.041260,119.551071 1094.545654,123.053810 1083.489014,123.072891 
	C1081.156372,123.076920 1078.823853,123.073669 1075.992676,123.073792 
z"/>
<path fill="#c0392b" opacity="1.000000" stroke="none" 
	d="
M1685.666260,315.040558 
	C1684.899414,312.166473 1683.932251,309.606598 1683.918213,307.041534 
	C1683.797607,284.897064 1683.816650,262.751617 1683.864624,240.606567 
	C1683.883789,231.786850 1688.066772,227.456741 1696.994263,227.408737 
	C1719.138672,227.289627 1741.284424,227.320312 1763.429321,227.394165 
	C1771.730103,227.421860 1776.418091,231.502380 1776.516113,239.779648 
	C1776.786377,262.587372 1776.770874,285.402191 1776.521484,308.210358 
	C1776.435791,316.051758 1771.918701,320.087189 1764.125000,320.117615 
	C1741.314209,320.206665 1718.502808,320.143463 1695.691650,320.152893 
	C1691.629517,320.154572 1688.217773,318.891693 1685.666260,315.040558 
z"/>
<path fill="#c0392b" opacity="1.000000" stroke="none" 
	d="
M1307.974854,383.931824 
	C1309.190674,379.440826 1312.229370,379.210022 1315.832886,379.266083 
	C1326.382446,379.430267 1326.324951,379.322815 1327.112671,389.497864 
	C1328.410889,406.264374 1329.782593,423.025269 1331.162842,439.785248 
	C1331.278931,441.194366 1331.692505,442.578949 1332.265259,445.483307 
	C1333.619629,442.966278 1334.366699,441.794769 1334.910156,440.535400 
	C1343.017334,421.746735 1351.184692,402.983002 1359.107422,384.116577 
	C1360.600830,380.560455 1362.329224,378.750580 1366.416626,379.244537 
	C1369.795654,379.652893 1373.263306,379.328003 1377.527588,379.328003 
	C1373.260864,388.953186 1369.388184,397.720917 1365.489868,406.477325 
	C1357.234497,425.020416 1348.917725,443.536377 1340.754883,462.120026 
	C1339.541382,464.882599 1338.172241,466.297516 1334.899292,466.090302 
	C1329.928833,465.775543 1324.923706,466.007965 1319.292236,466.007965 
	C1317.645508,445.025665 1316.012695,424.220154 1314.380005,403.414612 
	C1313.962280,403.273895 1313.544678,403.133179 1313.126953,402.992462 
	C1312.336914,404.417328 1311.475220,405.807617 1310.767578,407.272278 
	C1302.009521,425.402924 1293.169922,443.495728 1284.625000,461.726501 
	C1283.020752,465.149292 1281.133423,466.353882 1277.459229,466.088654 
	C1272.829956,465.754456 1268.158081,466.008057 1262.680908,466.008057 
	C1261.718140,437.233734 1260.763672,408.704224 1259.782349,379.371735 
	C1264.605713,379.371735 1269.050049,379.109711 1273.415405,379.580200 
	C1274.352295,379.681213 1275.657593,382.420288 1275.685669,383.964203 
	C1275.985107,400.457947 1276.066162,416.955658 1276.195068,433.452393 
	C1276.221802,436.882629 1276.198975,440.313232 1276.198975,443.743683 
	C1276.844238,443.896729 1277.489380,444.049774 1278.134644,444.202820 
	C1288.033325,424.230347 1297.932007,404.257874 1307.974854,383.931824 
z"/>
<path fill="#c0392b" opacity="1.000000" stroke="none" 
	d="
M1735.036255,459.092773 
	C1734.543457,461.457550 1734.106445,463.403473 1733.597412,465.670715 
	C1728.196167,465.670715 1722.771240,465.670715 1716.762939,465.670715 
	C1717.291016,461.991241 1717.810913,458.368500 1718.532837,453.338531 
	C1715.270020,456.389557 1713.190430,458.715210 1710.745117,460.554749 
	C1700.319580,468.397583 1688.762939,470.100983 1676.846558,465.004089 
	C1665.432251,460.121948 1661.124390,450.146484 1660.826660,438.368256 
	C1660.375610,420.532654 1664.143066,403.840240 1676.733398,390.418457 
	C1686.845947,379.638397 1699.838013,376.343903 1714.169922,378.542450 
	C1721.436035,379.657104 1727.017578,383.809265 1730.570435,390.541351 
	C1731.085449,390.537781 1731.600586,390.534210 1732.115601,390.530609 
	C1735.451904,375.379028 1738.788208,360.227448 1742.140503,345.002808 
	C1747.839600,345.002808 1753.125000,345.002808 1759.346436,345.002808 
	C1751.211182,383.129700 1743.151733,420.901794 1735.036255,459.092773 
M1720.021606,438.413361 
	C1724.495483,430.564362 1726.281860,421.967926 1726.530762,413.087372 
	C1726.851440,401.650085 1721.308105,394.075500 1712.032349,393.059784 
	C1700.952148,391.846497 1692.111450,395.817841 1686.097656,405.332916 
	C1680.707886,413.860687 1678.582153,423.471649 1678.370239,433.355896 
	C1678.101074,445.903809 1685.465210,453.275665 1696.643433,452.654877 
	C1706.694946,452.096649 1714.355835,447.598511 1720.021606,438.413361 
z"/>
<path fill="#c0392b" opacity="1.000000" stroke="none" 
	d="
M1558.037354,431.013458 
	C1553.813477,445.453918 1547.109009,457.605499 1532.981201,463.893433 
	C1524.568848,467.637573 1515.697021,468.692078 1506.653442,466.687683 
	C1499.651489,465.135834 1494.605835,460.723785 1491.069092,454.405273 
	C1490.610107,454.452179 1490.151001,454.499054 1489.691895,454.545959 
	C1489.093262,457.282898 1488.762939,460.121033 1487.784302,462.714661 
	C1487.285522,464.037018 1485.689575,465.756317 1484.474243,465.853333 
	C1479.857910,466.221893 1475.194702,466.001801 1469.902588,466.001801 
	C1472.317017,454.604126 1474.629517,443.633667 1476.965942,432.668304 
	C1482.923828,404.706512 1488.959106,376.760834 1494.762939,348.767212 
	C1495.410645,345.642609 1496.490112,344.580627 1499.606079,344.758942 
	C1503.886108,345.003845 1508.190674,344.820221 1512.902222,344.820221 
	C1509.589478,360.472473 1506.403564,375.524811 1503.217773,390.577148 
	C1503.512329,390.796570 1503.807007,391.015991 1504.101562,391.235443 
	C1505.210083,390.224396 1506.375122,389.268250 1507.417969,388.193634 
	C1515.870361,379.484375 1526.356934,376.707703 1538.024170,378.207581 
	C1550.888306,379.861328 1560.470215,390.182617 1560.777588,403.994354 
	C1560.974487,412.844727 1559.075073,421.741730 1558.037354,431.013458 
M1535.448242,440.840942 
	C1541.498535,430.277954 1544.089844,418.904022 1543.077759,406.794464 
	C1542.450317,399.288605 1537.909668,394.283569 1530.649658,393.199219 
	C1521.381104,391.814850 1512.894165,393.910187 1506.514282,401.054443 
	C1497.087158,411.611115 1494.068359,424.465424 1495.468506,438.192627 
	C1496.342163,446.758148 1501.391602,451.247528 1509.862427,452.270630 
	C1520.251709,453.525330 1528.856323,450.180176 1535.448242,440.840942 
z"/>
<path fill="#c0392b" opacity="1.000000" stroke="none" 
	d="
M1448.349609,444.837158 
	C1449.648804,445.856812 1450.635742,446.666840 1451.570679,447.434174 
	C1442.637329,463.828247 1426.667847,468.862457 1409.823608,467.405182 
	C1393.173462,465.964722 1383.127686,456.418091 1380.877808,439.539093 
	C1378.245483,419.791229 1383.331543,402.044281 1398.784302,388.636261 
	C1410.789185,378.220001 1425.140015,375.704102 1440.464355,379.378174 
	C1449.921387,381.645508 1456.867676,387.087677 1458.294922,397.243683 
	C1459.731079,407.462311 1455.807495,415.970764 1447.660034,422.109985 
	C1435.177734,431.515411 1420.520630,432.000458 1405.722534,431.419281 
	C1403.895874,431.347565 1402.077026,431.095276 1400.251221,430.980896 
	C1399.613037,430.940948 1398.964722,431.064606 1398.371948,431.109680 
	C1395.381470,443.322845 1404.031494,453.318268 1416.747437,452.612915 
	C1425.287476,452.139160 1432.737549,449.479553 1437.767456,442.113739 
	C1439.376465,439.757507 1440.963745,439.593628 1443.112183,441.221466 
	C1444.701660,442.425812 1446.391968,443.497040 1448.349609,444.837158 
M1435.050415,393.083099 
	C1416.328979,387.285065 1402.567261,401.146423 1400.431030,416.892395 
	C1407.913696,416.892395 1415.409302,417.395233 1422.793457,416.704865 
	C1427.264160,416.286896 1431.957397,414.699005 1435.849365,412.432587 
	C1442.453979,408.586365 1445.485840,397.210236 1435.050415,393.083099 
z"/>
<path fill="#c0392b" opacity="1.000000" stroke="none" 
	d="
M1613.237793,462.387726 
	C1618.883667,435.977783 1624.523315,410.013153 1629.893677,383.992950 
	C1630.658813,380.285187 1632.041382,378.959717 1635.766479,379.257690 
	C1639.692505,379.571716 1643.663330,379.328033 1648.288330,379.328033 
	C1642.076416,408.519379 1636.004272,437.053925 1629.844727,465.999268 
	C1624.913208,465.999268 1620.106201,466.142273 1615.324951,465.856567 
	C1614.540527,465.809692 1613.869019,463.876617 1613.237793,462.387726 
z"/>
<path fill="#c0392b" opacity="1.000000" stroke="none" 
	d="
M1588.826660,462.658722 
	C1585.263184,464.223450 1581.946289,466.521240 1578.617432,466.538452 
	C1571.204346,466.576843 1566.899292,460.722229 1567.941772,453.374420 
	C1568.832886,447.093567 1575.124756,443.398224 1582.407227,444.878632 
	C1589.139282,446.247131 1592.631104,451.949188 1590.813721,458.794891 
	C1590.480957,460.048370 1589.662231,461.172882 1588.826660,462.658722 
z"/>
<path fill="#c0392b" opacity="1.000000" stroke="none" 
	d="
M1641.095703,365.185852 
	C1634.427002,361.702850 1632.149170,356.551636 1634.399658,350.828125 
	C1636.353027,345.859863 1642.483765,343.139648 1648.085938,344.755280 
	C1653.655151,346.361389 1656.775146,351.248383 1655.846069,356.910217 
	C1654.785645,363.372253 1648.991211,366.744110 1641.095703,365.185852 
z"/>
<path fill="#FDFEFD" opacity="1.000000" stroke="none" 
	d="
M1529.944824,111.045052 
	C1533.094482,111.102196 1535.785889,110.917412 1538.407837,111.261971 
	C1546.172119,112.282303 1552.190186,118.385269 1553.625732,127.008102 
	C1554.765625,133.854370 1554.297363,140.515594 1550.452148,146.731354 
	C1547.659302,151.246155 1543.818115,153.798676 1538.689819,153.916504 
	C1529.046509,154.138092 1519.394287,153.956528 1509.746338,154.021347 
	C1507.438232,154.036850 1505.984619,153.675323 1506.006958,150.806839 
	C1506.108398,137.841614 1506.051270,124.875168 1506.051270,111.045029 
	C1513.989014,111.045029 1521.722046,111.045029 1529.944824,111.045052 
z"/>
<path fill="#FDFEFD" opacity="1.000000" stroke="none" 
	d="
M396.414185,168.351944 
	C400.239594,155.693069 403.922791,143.411301 407.605988,131.129517 
	C408.176727,131.164917 408.747467,131.200317 409.318207,131.235718 
	C416.637299,155.182739 423.956390,179.129745 431.477905,203.738998 
	C415.971680,203.738998 401.311493,203.738998 385.815063,203.738998 
	C389.381409,191.798828 392.826660,180.263947 396.414185,168.351944 
z"/>
<path fill="#FEFEFE" opacity="1.000000" stroke="none" 
	d="
M1719.832642,438.727386 
	C1714.355835,447.598511 1706.694946,452.096649 1696.643433,452.654877 
	C1685.465210,453.275665 1678.101074,445.903809 1678.370239,433.355896 
	C1678.582153,423.471649 1680.707886,413.860687 1686.097656,405.332916 
	C1692.111450,395.817841 1700.952148,391.846497 1712.032349,393.059784 
	C1721.308105,394.075500 1726.851440,401.650085 1726.530762,413.087372 
	C1726.281860,421.967926 1724.495483,430.564362 1719.832642,438.727386 
z"/>
<path fill="#FDFEFE" opacity="1.000000" stroke="none" 
	d="
M1535.251221,441.147217 
	C1528.856323,450.180176 1520.251709,453.525330 1509.862427,452.270630 
	C1501.391602,451.247528 1496.342163,446.758148 1495.468506,438.192627 
	C1494.068359,424.465424 1497.087158,411.611115 1506.514282,401.054443 
	C1512.894165,393.910187 1521.381104,391.814850 1530.649658,393.199219 
	C1537.909668,394.283569 1542.450317,399.288605 1543.077759,406.794464 
	C1544.089844,418.904022 1541.498535,430.277954 1535.251221,441.147217 
z"/>
<path fill="#FDFEFD" opacity="1.000000" stroke="none" 
	d="
M1435.415161,393.247314 
	C1445.485840,397.210236 1442.453979,408.586365 1435.849365,412.432587 
	C1431.957397,414.699005 1427.264160,416.286896 1422.793457,416.704865 
	C1415.409302,417.395233 1407.913696,416.892395 1400.431030,416.892395 
	C1402.567261,401.146423 1416.328979,387.285065 1435.415161,393.247314 
z"/>
</svg>